<svg width="50" height="50" viewBox="0 0 50 50" fill="none" xmlns="http://www.w3.org/2000/svg">
<path d="M25 50C38.8071 50 50 38.8071 50 25C50 11.1929 38.8071 0 25 0C11.1929 0 0 11.1929 0 25C0 38.8071 11.1929 50 25 50Z" fill="#0E23FF"/>
<path d="M36.1539 23.8252V26.1675C36.1539 26.9891 35.4848 27.6584 34.6632 27.6584H27.6561V34.663C27.6561 35.4847 26.9944 36.1539 26.1729 36.1539H23.8309C23.0094 36.1539 22.3403 35.4847 22.3403 34.663V27.6584H15.3368C14.5153 27.6584 13.8462 26.9891 13.8462 26.1675V23.8252C13.8462 23.0035 14.5153 22.3343 15.3368 22.3343H22.3403V15.3297C22.3403 14.508 23.0094 13.8462 23.8309 13.8462H26.1729C26.9944 13.8462 27.6561 14.508 27.6561 15.3297V22.3343H34.6632C35.4848 22.3343 36.1539 23.0035 36.1539 23.8252Z" fill="white"/>
</svg>
