<svg width="22" height="23" viewBox="0 0 22 23" fill="none" xmlns="http://www.w3.org/2000/svg">
<path d="M14.3442 16.4332C15.2277 15.5566 15.2305 14.1289 14.3505 13.2488L12.1354 11.0337V8.59338C12.1354 7.33952 11.1189 6.32307 9.86506 6.32307V11.9515L14.3442 16.4332ZM11.0002 22.1285C9.52608 22.1285 8.14292 21.8497 6.85073 21.2921C5.55837 20.7344 4.43424 19.9778 3.47834 19.022C2.52261 18.0661 1.76592 16.942 1.20828 15.6496C0.650645 14.3574 0.371826 12.9743 0.371826 11.5002C0.371826 10.026 0.650645 8.64286 1.20828 7.35067C1.76592 6.05831 2.52261 4.93418 3.47834 3.97827C4.43424 3.02255 5.55837 2.26586 6.85073 1.70822C8.14292 1.15058 9.52608 0.871765 11.0002 0.871765C12.4743 0.871765 13.8575 1.15058 15.1497 1.70822C16.4421 2.26586 17.5662 3.02255 18.5221 3.97827C19.4778 4.93418 20.2345 6.05831 20.7921 7.35067C21.3498 8.64286 21.6286 10.026 21.6286 11.5002C21.6286 12.9743 21.3498 14.3574 20.7921 15.6496C20.2345 16.942 19.4778 18.0661 18.5221 19.022C17.5662 19.9778 16.4421 20.7344 15.1497 21.2921C13.8575 21.8497 12.4743 22.1285 11.0002 22.1285Z" fill="#A7ADB6"/>
</svg>
