<svg width="154" height="40" viewBox="0 0 154 40" fill="none" xmlns="http://www.w3.org/2000/svg">
<path d="M40 20C40 31.0457 31.0457 40 20 40C8.9543 40 0 31.0457 0 20C0 8.9543 8.9543 0 20 0C31.0457 0 40 8.9543 40 20Z" fill="url(#paint0_linear_1_564)"/>
<path d="M40 20C40 31.0457 31.0457 40 20 40C8.9543 40 0 31.0457 0 20C0 8.9543 8.9543 0 20 0C31.0457 0 40 8.9543 40 20Z" fill="url(#paint1_linear_1_564)"/>
<path d="M20.1429 31.2857L7 18.1429C10.1793 15.1225 15.1867 15.1867 18.2875 18.2875L20.1429 20.1429L34.2843 6.00144C34.2843 6.00144 34.6441 5.85594 36.822 9.17797C39 12.5 38.7336 12.9807 38.7336 12.9807L20.1429 31.2857Z" fill="white"/>
<path d="M46.3287 14.025L47.0287 10.075H69.6287L68.9287 14.025H60.4787L57.5037 28H51.5787L54.5287 14.025H46.3287ZM77.6135 28.25C76.1968 28.25 74.8635 28.1083 73.6135 27.825C72.3801 27.5417 71.2885 27.1167 70.3385 26.55C69.3885 25.9833 68.6468 25.2917 68.1135 24.475C67.5968 23.6417 67.3385 22.6833 67.3385 21.6C67.3385 20.15 67.7885 18.9167 68.6885 17.9C69.5885 16.8833 70.8718 16.1083 72.5385 15.575C74.2051 15.0417 76.1718 14.775 78.4385 14.775C79.8551 14.775 81.1801 14.925 82.4135 15.225C83.6635 15.5083 84.7551 15.9333 85.6885 16.5C86.6385 17.05 87.3801 17.7417 87.9135 18.575C88.4468 19.3917 88.7135 20.3417 88.7135 21.425C88.7135 22.875 88.2551 24.1083 87.3385 25.125C86.4385 26.1417 85.1551 26.9167 83.4885 27.45C81.8385 27.9833 79.8801 28.25 77.6135 28.25ZM73.1635 21.5C73.1635 22.5333 73.6135 23.3083 74.5135 23.825C75.4301 24.325 76.5718 24.575 77.9385 24.575C79.4218 24.575 80.6135 24.2917 81.5135 23.725C82.4301 23.1417 82.8885 22.4083 82.8885 21.525C82.8885 20.8417 82.6635 20.275 82.2135 19.825C81.7801 19.375 81.2051 19.0333 80.4885 18.8C79.7718 18.5667 78.9801 18.45 78.1135 18.45C76.5468 18.45 75.3301 18.7417 74.4635 19.325C73.5968 19.9083 73.1635 20.6333 73.1635 21.5ZM90.9441 22.15L91.6941 18.425H101.144L100.444 22.15H90.9441ZM106.737 10.075H116.787C120.954 10.075 124.12 10.7333 126.287 12.05C128.454 13.35 129.537 15.4167 129.537 18.25C129.537 21.4 128.229 23.8167 125.612 25.5C122.995 27.1667 119.137 28 114.037 28H102.937L106.737 10.075ZM116.462 14.05H111.862L109.712 24.025H114.112C117.112 24.025 119.404 23.5583 120.987 22.625C122.587 21.675 123.387 20.275 123.387 18.425C123.387 16.825 122.795 15.7 121.612 15.05C120.445 14.3833 118.729 14.05 116.462 14.05ZM141.188 28.25C139.771 28.25 138.438 28.1083 137.188 27.825C135.954 27.5417 134.863 27.1167 133.913 26.55C132.963 25.9833 132.221 25.2917 131.688 24.475C131.171 23.6417 130.913 22.6833 130.913 21.6C130.913 20.15 131.363 18.9167 132.263 17.9C133.163 16.8833 134.446 16.1083 136.113 15.575C137.779 15.0417 139.746 14.775 142.013 14.775C143.429 14.775 144.754 14.925 145.988 15.225C147.238 15.5083 148.329 15.9333 149.263 16.5C150.213 17.05 150.954 17.7417 151.488 18.575C152.021 19.3917 152.288 20.3417 152.288 21.425C152.288 22.875 151.829 24.1083 150.913 25.125C150.013 26.1417 148.729 26.9167 147.063 27.45C145.413 27.9833 143.454 28.25 141.188 28.25ZM136.738 21.5C136.738 22.5333 137.188 23.3083 138.088 23.825C139.004 24.325 140.146 24.575 141.513 24.575C142.996 24.575 144.188 24.2917 145.088 23.725C146.004 23.1417 146.463 22.4083 146.463 21.525C146.463 20.8417 146.238 20.275 145.788 19.825C145.354 19.375 144.779 19.0333 144.063 18.8C143.346 18.5667 142.554 18.45 141.688 18.45C140.121 18.45 138.904 18.7417 138.038 19.325C137.171 19.9083 136.738 20.6333 136.738 21.5Z" fill="black"/>
<defs>
<linearGradient id="paint0_linear_1_564" x1="0" y1="0" x2="40" y2="40" gradientUnits="userSpaceOnUse">
<stop stop-color="#AD00FF"/>
<stop offset="1" stop-color="#0E23FF"/>
</linearGradient>
<linearGradient id="paint1_linear_1_564" x1="0" y1="0" x2="40" y2="40" gradientUnits="userSpaceOnUse">
<stop stop-color="#AD00FF"/>
<stop offset="1" stop-color="#0E23FF"/>
</linearGradient>
</defs>
</svg>
