<svg width="24" height="24" viewBox="0 0 24 24" fill="none" xmlns="http://www.w3.org/2000/svg">
<path d="M24 12C24 18.6274 18.6274 24 12 24C5.37258 24 0 18.6274 0 12C0 5.37258 5.37258 0 12 0C18.6274 0 24 5.37258 24 12Z" fill="#0E23FF"/>
<path d="M24 12C24 18.6274 18.6274 24 12 24C5.37258 24 0 18.6274 0 12C0 5.37258 5.37258 0 12 0C18.6274 0 24 5.37258 24 12Z" fill="#0E23FF"/>
<path d="M12.0857 18.7714L4.2 10.8857C6.1076 9.07349 9.11201 9.11201 10.9725 10.9725L12.0857 12.0857L20.5706 3.60086C20.5706 3.60086 20.7864 3.51357 22.0932 5.50678C23.4 7.5 23.2401 7.78843 23.2401 7.78843L12.0857 18.7714Z" fill="white"/>
</svg>
